<svg width="271" height="74" viewBox="0 0 271 74" fill="none" xmlns="http://www.w3.org/2000/svg">
<path d="M0 73.1L19 0.1H31.1L50 73.1H40.9L36.1 53.7H14L9.2 73.1H0ZM15.8 46.1H34.2L28.6 23.6C27.5333 19.3333 26.7 15.7667 26.1 12.9C25.5 10.0333 25.1333 8.16666 25 7.3C24.8667 8.16666 24.5 10.0333 23.9 12.9C23.3 15.7667 22.4667 19.3 21.4 23.5L15.8 46.1Z" fill="url(#paint0_linear_531_124)"/>
<path d="M65.4609 73.1V64.9H80.3609V8.3H65.4609V0.1H104.461L111 4.6L104.461 8.3H89.5609V64.9H104.461V73.1H65.4609Z" fill="url(#paint1_linear_531_124)"/>
<path d="M124.5 73.1V8.2L104.5 8.29922V0.100006L153.5 0V8.2H133.5V73.1H124.5Z" fill="url(#paint2_linear_531_124)"/>
<path d="M168.161 73.1V0.0999987H187.061C191.794 0.0999987 195.861 0.999999 199.261 2.8C202.728 4.6 205.394 7.13333 207.261 10.4C209.194 13.6667 210.161 17.5333 210.161 22V51.1C210.161 55.5667 209.194 59.4667 207.261 62.8C205.394 66.0667 202.728 68.6 199.261 70.4C195.861 72.2 191.794 73.1 187.061 73.1H168.161ZM177.161 65.1H187.061C191.461 65.1 194.894 63.8667 197.361 61.4C199.894 58.9333 201.161 55.5 201.161 51.1V22C201.161 17.6667 199.894 14.2667 197.361 11.8C194.894 9.33333 191.461 8.1 187.061 8.1H177.161V65.1Z" fill="url(#paint3_linear_531_124)"/>
<path d="M228.122 73.1V0.0999987H247.022C251.755 0.0999987 255.822 0.999999 259.222 2.8C262.689 4.6 265.355 7.13333 267.222 10.4C269.155 13.6667 270.122 17.5333 270.122 22V51.1C270.122 55.5667 269.155 59.4667 267.222 62.8C265.355 66.0667 262.689 68.6 259.222 70.4C255.822 72.2 251.755 73.1 247.022 73.1H228.122ZM237.122 65.1H247.022C251.422 65.1 254.855 63.8667 257.322 61.4C259.855 58.9333 261.122 55.5 261.122 51.1V22C261.122 17.6667 259.855 14.2667 257.322 11.8C254.855 9.33333 251.422 8.1 247.022 8.1H237.122V65.1Z" fill="url(#paint4_linear_531_124)"/>
<path d="M0 73.1L19 0.1H31.1L50 73.1H40.9L36.1 53.7H14L9.2 73.1H0ZM15.8 46.1H34.2L28.6 23.6C27.5333 19.3333 26.7 15.7667 26.1 12.9C25.5 10.0333 25.1333 8.16666 25 7.3C24.8667 8.16666 24.5 10.0333 23.9 12.9C23.3 15.7667 22.4667 19.3 21.4 23.5L15.8 46.1Z" fill="url(#paint5_linear_531_124)"/>
<path d="M65.4609 73.1V64.9H80.3609V8.3H65.4609V0.1H104.461L111 4.6L104.461 8.3H89.5609V64.9H104.461V73.1H65.4609Z" fill="url(#paint6_linear_531_124)"/>
<path d="M124.5 73.1V8.2L104.5 8.29922V0.100006L153.5 0V8.2H133.5V73.1H124.5Z" fill="url(#paint7_linear_531_124)"/>
<path d="M168.161 73.1V0.0999987H187.061C191.794 0.0999987 195.861 0.999999 199.261 2.8C202.728 4.6 205.394 7.13333 207.261 10.4C209.194 13.6667 210.161 17.5333 210.161 22V51.1C210.161 55.5667 209.194 59.4667 207.261 62.8C205.394 66.0667 202.728 68.6 199.261 70.4C195.861 72.2 191.794 73.1 187.061 73.1H168.161ZM177.161 65.1H187.061C191.461 65.1 194.894 63.8667 197.361 61.4C199.894 58.9333 201.161 55.5 201.161 51.1V22C201.161 17.6667 199.894 14.2667 197.361 11.8C194.894 9.33333 191.461 8.1 187.061 8.1H177.161V65.1Z" fill="url(#paint8_linear_531_124)"/>
<path d="M228.122 73.1V0.0999987H247.022C251.755 0.0999987 255.822 0.999999 259.222 2.8C262.689 4.6 265.355 7.13333 267.222 10.4C269.155 13.6667 270.122 17.5333 270.122 22V51.1C270.122 55.5667 269.155 59.4667 267.222 62.8C265.355 66.0667 262.689 68.6 259.222 70.4C255.822 72.2 251.755 73.1 247.022 73.1H228.122ZM237.122 65.1H247.022C251.422 65.1 254.855 63.8667 257.322 61.4C259.855 58.9333 261.122 55.5 261.122 51.1V22C261.122 17.6667 259.855 14.2667 257.322 11.8C254.855 9.33333 251.422 8.1 247.022 8.1H237.122V65.1Z" fill="url(#paint9_linear_531_124)"/>
<defs>
<linearGradient id="paint0_linear_531_124" x1="135" y1="-5.18531e-06" x2="135" y2="73" gradientUnits="userSpaceOnUse">
<stop stop-color="#4B73FF"/>
<stop offset="0.791667" stop-color="#86FFA1"/>
</linearGradient>
<linearGradient id="paint1_linear_531_124" x1="135" y1="-5.18531e-06" x2="135" y2="73" gradientUnits="userSpaceOnUse">
<stop stop-color="#4B73FF"/>
<stop offset="0.791667" stop-color="#86FFA1"/>
</linearGradient>
<linearGradient id="paint2_linear_531_124" x1="135" y1="-5.18531e-06" x2="135" y2="73" gradientUnits="userSpaceOnUse">
<stop stop-color="#4B73FF"/>
<stop offset="0.791667" stop-color="#86FFA1"/>
</linearGradient>
<linearGradient id="paint3_linear_531_124" x1="135" y1="-5.18531e-06" x2="135" y2="73" gradientUnits="userSpaceOnUse">
<stop stop-color="#4B73FF"/>
<stop offset="0.791667" stop-color="#86FFA1"/>
</linearGradient>
<linearGradient id="paint4_linear_531_124" x1="135" y1="-5.18531e-06" x2="135" y2="73" gradientUnits="userSpaceOnUse">
<stop stop-color="#4B73FF"/>
<stop offset="0.791667" stop-color="#86FFA1"/>
</linearGradient>
<linearGradient id="paint5_linear_531_124" x1="135" y1="-5.18531e-06" x2="135" y2="73" gradientUnits="userSpaceOnUse">
<stop stop-color="#4B73FF"/>
<stop offset="0.791667" stop-color="#86FFA1"/>
</linearGradient>
<linearGradient id="paint6_linear_531_124" x1="135" y1="-5.18531e-06" x2="135" y2="73" gradientUnits="userSpaceOnUse">
<stop stop-color="#4B73FF"/>
<stop offset="0.791667" stop-color="#86FFA1"/>
</linearGradient>
<linearGradient id="paint7_linear_531_124" x1="135" y1="-5.18531e-06" x2="135" y2="73" gradientUnits="userSpaceOnUse">
<stop stop-color="#4B73FF"/>
<stop offset="0.791667" stop-color="#86FFA1"/>
</linearGradient>
<linearGradient id="paint8_linear_531_124" x1="135" y1="-5.18531e-06" x2="135" y2="73" gradientUnits="userSpaceOnUse">
<stop stop-color="#4B73FF"/>
<stop offset="0.791667" stop-color="#86FFA1"/>
</linearGradient>
<linearGradient id="paint9_linear_531_124" x1="135" y1="-5.18531e-06" x2="135" y2="73" gradientUnits="userSpaceOnUse">
<stop stop-color="#4B73FF"/>
<stop offset="0.791667" stop-color="#86FFA1"/>
</linearGradient>
</defs>
</svg>
